<svg xmlns="http://www.w3.org/2000/svg" version="1.1" xmlns:xlink="http://www.w3.org/1999/xlink" viewBox="0 0 12.2904052734375 13.193504377344443"><g transform="matrix(0.8571428571428571,0,0,0.8571428571428571,1.7557721819196432,9.637281539058069)"><rect width="15.241905256250693" height="15.241905256250693" x="-2.4999504308597214" y="-11.16823687024217" fill="#ffffff"></rect><g transform="matrix(1,0,0,1,0,0)" clip-path="url(#SvgjsClipPath120327)"><g clip-path="url(#SvgjsClipPath120322dc2da128-73b1-4258-815f-e9bcd53aa0eb)"><path d=" M 0.712186577693256 -3.502853249625324 C 0.8243732292878698 -3.086387806421624 1.2526321185020275 -2.839443719653957 1.669273701197827 -2.950974440747342 C 2.085791530553402 -3.0631973144268594 2.333109065768209 -3.4911400158098056 2.22239548036604 -3.908061564251888 C 2.1102088287714134 -4.324527007455614 1.6819499395572433 -4.571471094223255 1.2653083568614565 -4.4599403731298946 C 1.064885072489402 -4.406622750917591 0.893918817254266 -4.275737635774079 0.7901448310246774 -4.096173659601567 C 0.6863708447951014 -3.91660968342903 0.6583210684296322 -3.7031299798478665 0.712186577693256 -3.502853249625324 Z" fill="#3361e1" transform="matrix(1,0,0,1,0,0)" fill-rule="evenodd"></path></g><g clip-path="url(#SvgjsClipPath120322dc2da128-73b1-4258-815f-e9bcd53aa0eb)"><path d=" M 3.5784760670459166 -4.271008889009499 C 3.6338858760356794 -4.081643721368768 3.830423008993305 -3.971229601729659 4.020973490380495 -4.022414830956331 C 4.210338658021225 -4.077824639946119 4.320752777660347 -4.274361772903757 4.269567548433651 -4.4649122542909465 C 4.214714378421549 -4.654106982750305 4.018551887086447 -4.764621062375742 3.828313095389291 -4.713506312344064 C 3.638446751236288 -4.658631169338091 3.5273873233411694 -4.461928899036299 3.5784760670459166 -4.271008889009499 Z" fill="#3361e1" transform="matrix(1,0,0,1,0,0)" fill-rule="evenodd"></path></g><g clip-path="url(#SvgjsClipPath120322dc2da128-73b1-4258-815f-e9bcd53aa0eb)"><path d=" M 2.26589944052535 -4.68491799566796 C 2.2655693145804046 -4.53339054674908 2.3255320842685734 -4.3879561707476595 2.432561771714469 -4.28069330315481 C 2.539591459160339 -4.173430435561985 2.6848949952241155 -4.113151302530993 2.8364228037573076 -4.113151662145746 C 2.9879506122904997 -4.113151302530993 3.133254148354276 -4.173430435561985 3.240283835800159 -4.28069330315481 C 3.3473135232460542 -4.3879561707476595 3.40727629293421 -4.53339054674908 3.4069461669892647 -4.68491799566796 C 3.406946169243998 -4.836230190934336 3.34683763250159 -4.981345041668355 3.2398437487354177 -5.088338928623201 C 3.1328498649692325 -5.195332815578046 2.987735016026594 -5.255441356645196 2.8364228122587627 -5.255441358899917 C 2.6851105999894886 -5.255441358899917 2.5399957501511534 -5.195332819995144 2.433001864790638 -5.0883389346346295 C 2.3260079794301234 -4.98134504927414 2.26589944052535 -4.836230199435791 2.26589944052535 -4.68491799566796 Z" fill="#3361e1" transform="matrix(1,0,0,1,0,0)" fill-rule="evenodd"></path></g><g clip-path="url(#SvgjsClipPath120322dc2da128-73b1-4258-815f-e9bcd53aa0eb)"><path d=" M 6.301823973018029 -0.2761023760955901 C 6.71828941622173 -0.3882890276902291 6.965233502989384 -0.816547916904387 6.853702781895999 -1.2331894996001864 C 6.8003851596837075 -1.4336127839722286 6.669500044540208 -1.604579039207377 6.489936068367672 -1.7083530254369537 C 6.310372092195147 -1.8121270116665293 6.096892388613983 -1.8401767880320108 5.896615658391428 -1.786311278768375 C 5.480150215187727 -1.6741246271737609 5.233206128420074 -1.2458657379596163 5.344736849513459 -0.829224155263816 C 5.456959723192964 -0.41270632590824086 5.88490242457591 -0.16538879069343437 6.301823973018017 -0.2761023760955901 Z" fill="#000000" transform="matrix(1,0,0,1,0,0)" fill-rule="evenodd"></path></g><g clip-path="url(#SvgjsClipPath120322dc2da128-73b1-4258-815f-e9bcd53aa0eb)"><path d=" M 5.533668333633842 -3.141148895157995 C 5.72331052391116 -3.1954362454427585 5.834092933341362 -3.3920750221813822 5.782262391686985 -3.5824033482023285 C 5.730700695614356 -3.7745574794808494 5.533207975998728 -3.888602571089862 5.341007938642651 -3.8372122577067804 C 5.148800324747276 -3.7856147380137557 5.034381807195597 -3.588437195631034 5.084956058847943 -3.3959578046624213 C 5.109611183952747 -3.301997870196658 5.171146109475152 -3.2219662956808417 5.255617275879658 -3.1739979047863196 C 5.340088442284163 -3.1260295138917735 5.44034467757835 -3.11418522146188 5.5336683336338295 -3.1411488951579694 Z" fill="#000000" transform="matrix(1,0,0,1,0,0)" fill-rule="evenodd"></path></g><g clip-path="url(#SvgjsClipPath120322dc2da128-73b1-4258-815f-e9bcd53aa0eb)"><path d=" M 5.121002197265625 -1.8298152389277105 C 5.435809949048817 -1.830498862954565 5.690841936470703 -2.085530850376463 5.691525560497582 -2.4003386021596427 C 5.691526305534183 -2.7156316547143025 5.43629450485083 -2.9714195159888543 5.121002197291616 -2.9721049356818314 C 4.805224370794671 -2.9721049356818563 4.549235863743436 -2.7161164286306336 4.549235863743436 -2.4003386021596427 C 4.549921283422056 -2.0850462946004287 4.805709144684987 -1.8298144939054408 5.121002197265613 -1.8298152389277105 Z" fill="#000000" transform="matrix(1,0,0,1,0,0)" fill-rule="evenodd"></path></g><g clip-path="url(#SvgjsClipPath120322dc2da128-73b1-4258-815f-e9bcd53aa0eb)"><path d=" M 2.838908744337833 -0.7322724726231051 C 3.2124353917819675 -0.5173680527613964 3.689426665336877 -0.6452328463716892 3.905377253385795 -1.0181556393842257 C 4.009323786396728 -1.197591248526435 4.0375996033145825 -1.4110134392828666 3.9839651140785874 -1.611326596907677 C 3.930330624842605 -1.8116397545324627 3.799194391418081 -1.9823788584684596 3.6194940866247007 -2.085867118722444 C 3.4401702138969927 -2.1894187752582592 3.2270489259720194 -2.2174735856892305 3.0270357777910912 -2.1638570075055377 C 2.8270226296101635 -2.1102404293218457 2.656509932171332 -1.9793466717653638 2.5530255775767263 -1.799983951961324 C 2.4490790445658055 -1.620548342819089 2.4208032276479514 -1.4071261520626823 2.474437716883947 -1.2068129944378718 C 2.528072206119929 -1.0064998368130613 2.6592084395444653 -0.8357607328770644 2.838908744337833 -0.7322724726230927 Z" fill="#3361e1" transform="matrix(1,0,0,1,0,0)" fill-rule="evenodd"></path></g><g clip-path="url(#SvgjsClipPath120322dc2da128-73b1-4258-815f-e9bcd53aa0eb)"><path d=" M 4.323015270915064 -3.302735032892543 C 4.406208831865456 -3.253387604579534 4.5057447868397205 -3.239546927205623 4.599245600091418 -3.26432464271731 C 4.692746413343128 -3.2891023582290213 4.772365636897075 -3.350419157912916 4.82020338702135 -3.434489883660679 C 4.869550815334347 -3.5176834446110847 4.88339149270827 -3.6172193995853483 4.858613777196571 -3.710720212837046 C 4.833836061684871 -3.8042210260887686 4.772519262000964 -3.883840249642703 4.688448536253189 -3.9316779997669657 C 4.605423706353269 -3.9817252263108163 4.505650898592048 -3.9959598894394057 4.411942903654568 -3.9711272707809764 C 4.318234908717076 -3.946294652122522 4.238605026329694 -3.884518276104563 4.191260420146914 -3.799923148998829 C 4.141565116762973 -3.7168130628427143 4.127528779781146 -3.6171595475059775 4.152333720453203 -3.5235559978000888 C 4.177138661125273 -3.4299524480941495 4.238683661798746 -3.350327987236068 4.323015270915064 -3.302735032892543 Z" fill="#000000" transform="matrix(1,0,0,1,0,0)" fill-rule="evenodd"></path></g><g clip-path="url(#SvgjsClipPath120322dc2da128-73b1-4258-815f-e9bcd53aa0eb)"><path d=" M 3.1024184458741697 -2.666334244276505 C 3.209243748008156 -2.559082089812283 3.3543863828940097 -2.4987924442538665 3.5057623050653737 -2.4987924442538665 C 3.65713822723675 -2.4987924442538665 3.802280862122604 -2.559082089812283 3.90910616425659 -2.666334244276505 C 4.131806643208987 -2.8891198320656644 4.131806643208987 -3.250236374869777 3.90910616425659 -3.4730219626589376 C 3.802280862122604 -3.5802741171231593 3.65713822723675 -3.640563762681576 3.5057623050653737 -3.640563762681576 C 3.3543863828940097 -3.640563762681576 3.209243748008156 -3.5802741171231593 3.1024184458741697 -3.4730219626589376 C 2.995166291409948 -3.366196660524939 2.934876645851519 -3.221054025639085 2.934876645851519 -3.0696781034677088 C 2.934876645851519 -2.918302181296357 2.995166291409948 -2.773159546410503 3.1024184458741697 -2.666334244276505 Z" fill="#3361e1" transform="matrix(1,0,0,1,0,0)" fill-rule="evenodd"></path></g><g clip-path="url(#SvgjsClipPath120322dc2da128-73b1-4258-815f-e9bcd53aa0eb)"><path d=" M 9.072404750020237 -2.4028245427401806 C 9.287420290109111 -2.7767250262115466 9.159601610099049 -3.2541000093795622 8.786521583259116 -3.4705360220783996 C 8.412621099787724 -3.6855515621672748 7.935246116619721 -3.557732882157212 7.718810103920897 -3.18465285531728 C 7.503794563832035 -2.810752371845888 7.631613243842097 -2.3333773886778975 8.004693270682044 -2.116941375979061 C 8.18412887982424 -2.012994842968128 8.397551070580672 -1.9847190260502865 8.597864228205482 -2.038353515286282 C 8.798177385830279 -2.0919880045222516 8.968916489766276 -2.223124237946788 9.072404750020262 -2.4028245427401558 Z" fill="#000000" transform="matrix(1,0,0,1,0,0)" fill-rule="evenodd"></path></g><g clip-path="url(#SvgjsClipPath120322dc2da128-73b1-4258-815f-e9bcd53aa0eb)"><path d=" M 6.504428130331337 -3.8869310693173986 C 6.553775558644333 -3.9701246302678044 6.567616236018257 -4.069660585242067 6.542838520506558 -4.163161398493766 C 6.5180608049948585 -4.256662211745463 6.45674400531095 -4.336281435299423 6.372673279563175 -4.384119185423685 C 6.289479718612795 -4.4334666137366945 6.189943763638519 -4.447307291110605 6.096442950386821 -4.422529575598919 C 6.00294213713511 -4.397751860087206 5.923322913581163 -4.3364350604033115 5.875485163456902 -4.252364334655523 C 5.826481643220778 -4.169089033511683 5.812834020152498 -4.06966894667651 5.8375849522516265 -3.9762692029062254 C 5.862335884350754 -3.882869459135941 5.923427584470753 -3.8032552929456704 6.007240014225051 -3.755176218549262 C 6.090515315368903 -3.706172698313127 6.189935402204064 -3.6925250752448466 6.283335145974348 -3.7172760073439743 C 6.376734889744657 -3.742026939443103 6.456349055934917 -3.8031186395631016 6.504428130331337 -3.8869310693173986 Z" fill="#51a8db" transform="matrix(1,0,0,1,0,0)" fill-rule="evenodd"></path></g><g clip-path="url(#SvgjsClipPath120322dc2da128-73b1-4258-815f-e9bcd53aa0eb)"><path d=" M 7.139585948657106 -2.666334244276505 C 7.362286427609503 -2.8891198320656644 7.362286427609503 -3.250236374869777 7.139585948657106 -3.4730219626589376 C 7.032548110131298 -3.580349276728942 6.88719979557655 -3.6406695279472663 6.7356206043207605 -3.6406695279472663 C 6.584041413064972 -3.6406695279472663 6.438693098510224 -3.580349276728942 6.331655259984403 -3.4730219626589376 C 6.224403105520194 -3.366196660524939 6.164113459961765 -3.221054025639085 6.164113459961765 -3.0696781034677088 C 6.164113459961765 -2.918302181296357 6.224403105520194 -2.773159546410503 6.331655259984403 -2.666334244276505 C 6.438693098510224 -2.5590069302064746 6.584041413064972 -2.498686678988176 6.7356206043207605 -2.498686678988176 C 6.88719979557655 -2.498686678988176 7.032548110131298 -2.5590069302064746 7.139585948657106 -2.666334244276505 Z" fill="#000000" transform="matrix(1,0,0,1,0,0)" fill-rule="evenodd"></path></g><g clip-path="url(#SvgjsClipPath120322dc2da128-73b1-4258-815f-e9bcd53aa0eb)"><path d=" M 7.401852679903173 -8.636320548422583 C 7.028048520193498 -8.852069847076374 6.550127129984136 -8.724104864831734 6.334141200564955 -8.350437381661463 C 6.118600223204572 -7.976307773451659 6.247148625670235 -7.498285791988499 6.6212673376163185 -7.28272590232327 C 6.800741943812068 -7.179277333813279 7.013976645653307 -7.1514116849615075 7.214007721317732 -7.205266205332691 C 7.414038796982171 -7.259120725703901 7.584459571978598 -7.3902782337042785 7.68773584666428 -7.569852039374621 C 7.79162462159659 -7.749098176035949 7.819867575205571 -7.962332891683233 7.766224708981989 -8.162444105682532 C 7.712581842758406 -8.362555319681805 7.58146843367326 -8.533072129245552 7.401852679903185 -8.636320548422583 Z" fill="#51a8db" transform="matrix(1,0,0,1,0,0)" fill-rule="evenodd"></path></g><g clip-path="url(#SvgjsClipPath120322dc2da128-73b1-4258-815f-e9bcd53aa0eb)"><path d=" M 5.917746153325942 -6.067100958443403 C 5.834319350447894 -6.116002252921122 5.7347849179581845 -6.129460773512726 5.641367020593488 -6.1044714859676645 C 5.547949123228804 -6.079482198422628 5.468427573857644 -6.018126202683248 5.420558037219656 -5.934103137384984 C 5.37121060890666 -5.850909576434579 5.357369931532736 -5.751373621460315 5.382147647044436 -5.657872808208618 C 5.406925362556135 -5.56437199495692 5.468242162240042 -5.48475277140296 5.552312887987792 -5.436915021278698 C 5.635588189131658 -5.387911501042563 5.735008275966831 -5.3742638779743075 5.8284080197371155 -5.399014810073435 C 5.921807763507412 -5.423765742172538 6.001421929697684 -5.484857442292562 6.0495010040940915 -5.5686698720468595 C 6.098903875307529 -5.652053840995473 6.112775931015751 -5.751776225944285 6.088006881154807 -5.845478008908828 C 6.063237831293837 -5.939179791873396 6.001900017909116 -6.019021263795155 5.917746153325942 -6.067100958443403 Z" fill="#51a8db" transform="matrix(1,0,0,1,0,0)" fill-rule="evenodd"></path></g><g clip-path="url(#SvgjsClipPath120322dc2da128-73b1-4258-815f-e9bcd53aa0eb)"><path d=" M 7.139585948657106 -6.702258776769185 C 7.032548110131298 -6.809586090839188 6.88719979557655 -6.869906342057512 6.7356206043207605 -6.869906342057512 C 6.584041413064972 -6.869906342057512 6.438693098510224 -6.809586090839188 6.331655259984403 -6.702258776769185 C 6.224403105520194 -6.595433474635185 6.164113459961765 -6.450290839749331 6.164113459961765 -6.298914917577955 C 6.164113459961765 -6.147538995406603 6.224403105520194 -6.00239636052075 6.331655259984403 -5.895571058386751 C 6.555148899589839 -5.673410068493784 6.916092309051683 -5.673410068493784 7.139585948657106 -5.895571058386751 C 7.362286427609503 -6.118356646175911 7.362286427609503 -6.479473188980023 7.139585948657106 -6.702258776769185 Z" fill="#51a8db" transform="matrix(1,0,0,1,0,0)" fill-rule="evenodd"></path></g><g clip-path="url(#SvgjsClipPath120322dc2da128-73b1-4258-815f-e9bcd53aa0eb)"><path d=" M 9.528574846547752 -5.8657397714203645 C 9.416388194953125 -6.28220521462409 8.988129305738955 -6.529149301391731 8.571487723043166 -6.417618580298346 C 8.371158271980558 -6.3645800370951395 8.200201725138864 -6.233939210880824 8.096407908123204 -6.054574165296469 C 7.992614091107528 -5.875209119712089 7.964530842150998 -5.661891287569427 8.018365943874954 -5.461774427084032 C 8.130001536196172 -5.044805885954511 8.558434202437962 -4.797205189230339 8.975453067379526 -4.908652647915794 C 9.392421608509046 -5.020288240237025 9.640022305233206 -5.448720906478828 9.528574846547752 -5.86573977142039 Z" fill="#51a8db" transform="matrix(1,0,0,1,0,0)" fill-rule="evenodd"></path></g><g clip-path="url(#SvgjsClipPath120322dc2da128-73b1-4258-815f-e9bcd53aa0eb)"><path d=" M 6.66104238690482 -5.097584132036189 C 6.607328659355634 -5.2876783701143415 6.4102056734750965 -5.398733573427325 6.219787933860499 -5.346178190089333 C 6.030145743583181 -5.2918908398045685 5.919363334152967 -5.095252063065946 5.971193875807356 -4.9049237370449985 C 6.024907603356542 -4.714829498966846 6.222030589237066 -4.6037742956538885 6.412448328851677 -4.656329678991855 C 6.602542566929841 -4.710043406541042 6.713597770242825 -4.9071663924215665 6.661042386904833 -5.097584132036165 Z" fill="#51a8db" transform="matrix(1,0,0,1,0,0)" fill-rule="evenodd"></path></g><g clip-path="url(#SvgjsClipPath120322dc2da128-73b1-4258-815f-e9bcd53aa0eb)"><path d=" M 7.974861983715644 -4.68491799566796 C 7.974178359688788 -4.999725747451114 7.719146372266891 -5.254757734873037 7.404338620483712 -5.255441358899917 C 7.089045567903035 -5.255442103922187 6.833257706640117 -5.000210303227224 6.832572286961472 -4.68491799566796 C 6.8325722916669305 -4.369140160677009 7.088560802532679 -4.113151657440301 7.404338629003658 -4.113151662145771 C 7.7196309280429505 -4.113837081824403 7.974862728737925 -4.3696249430873095 7.974861983715644 -4.68491799566796 Z" fill="#51a8db" transform="matrix(1,0,0,1,0,0)" fill-rule="evenodd"></path></g><g clip-path="url(#SvgjsClipPath120322dc2da128-73b1-4258-815f-e9bcd53aa0eb)"><path d=" M 3.9389374512229764 -9.092490644950098 C 3.5224720080192506 -8.980303993355484 3.2755279212516095 -8.552045104141314 3.387058642344982 -8.135403521445527 C 3.4406449598355753 -7.935209720382444 3.5716415026757624 -7.76454239870282 3.7511744136053244 -7.661019525387601 C 3.9307073245348993 -7.5574966520723565 4.144038367237078 -7.529616638711957 4.344145765849591 -7.58352471256757 C 4.544245741910405 -7.636832403446695 4.714903127519425 -7.767584837688791 4.8184457110053325 -7.946918726654243 C 4.92198829449124 -8.126252615619695 4.949901867319096 -8.33942150353518 4.8960245747275595 -8.539368865781885 C 4.784388982406317 -8.95633740691138 4.3559563161645265 -9.203938103635553 3.938937451222951 -9.092490644950098 Z" fill="#51a8db" transform="matrix(1,0,0,1,0,0)" fill-rule="evenodd"></path></g><g clip-path="url(#SvgjsClipPath120322dc2da128-73b1-4258-815f-e9bcd53aa0eb)"><path d=" M 4.7070930906071515 -6.226201155597412 C 4.517727922966445 -6.170791346607649 4.407313803327324 -5.974254213650012 4.4584990325540215 -5.783703732262847 C 4.513352202566084 -5.594509003803463 4.709514693901186 -5.483994924178026 4.8997534855983425 -5.5351096742097035 C 5.091961099493743 -5.586707193902702 5.206379617045422 -5.783884736285424 5.155805365393076 -5.976364127254012 C 5.1294809723122405 -6.069028674334044 5.067398355559213 -6.14742705669041 4.983233799517159 -6.194288762409123 C 4.899069243475131 -6.24115046812781 4.799727629958696 -6.252630950824511 4.707093090607139 -6.226201155597412 Z" fill="#51a8db" transform="matrix(1,0,0,1,0,0)" fill-rule="evenodd"></path></g><g clip-path="url(#SvgjsClipPath120322dc2da128-73b1-4258-815f-e9bcd53aa0eb)"><path d=" M 5.121002197265625 -7.538777782117979 C 4.969474748346757 -7.539107908062949 4.824040372345325 -7.479145138374768 4.716777504752488 -7.372115450928885 C 4.609514637159676 -7.265085763483002 4.549235504128671 -7.1197822274192255 4.549235863743424 -6.968254418886046 C 4.549235504134973 -6.816726610329145 4.609514637172003 -6.671423074267864 4.7167775047692775 -6.564393386826443 C 4.824040372366564 -6.457363699384997 4.969474748370479 -6.397400929702892 5.121002197289335 -6.397731055654139 C 5.2723144010334435 -6.397731055654089 5.417429250871792 -6.4578395945588625 5.524423136232294 -6.564833479919377 C 5.631417021592809 -6.671827365279867 5.691525560497582 -6.816942215118215 5.691525560497582 -6.968254418886046 C 5.691525562752315 -7.119566614152397 5.631417026009908 -7.264681464886417 5.5244231422437355 -7.371675351841262 C 5.417429258477551 -7.4786692387961065 5.272314409534924 -7.538777779863258 5.1210022057670805 -7.538777782117979 Z" fill="#51a8db" transform="matrix(1,0,0,1,0,0)" fill-rule="evenodd"></path></g><g clip-path="url(#SvgjsClipPath120322dc2da128-73b1-4258-815f-e9bcd53aa0eb)"><path d=" M 1.168356674220758 -6.965768478305508 C 1.0644678992884604 -6.786522341644179 1.0362249456794799 -6.573287625996896 1.0898678119030494 -6.373176411997597 C 1.1435106781266442 -6.173065197998323 1.274624087211778 -6.002548388434578 1.4542398409818524 -5.899299969257546 C 1.6336754501240747 -5.795353436246613 1.8470976408805069 -5.767077619328772 2.047410798505317 -5.820712108564766 C 2.247723956130115 -5.874346597800736 2.4184630600661117 -6.005482831225272 2.5219513203200963 -6.18518313601864 C 2.7368557401818174 -6.5587097834627865 2.6089909465715255 -7.035701057017709 2.2360681535590015 -7.2516516450666275 C 2.0566325444167797 -7.3555981780775355 1.8432103536603472 -7.383873994995402 1.6428971960355367 -7.3302395057594065 C 1.4425840384107387 -7.276605016523412 1.2718449344747422 -7.145468783098876 1.168356674220758 -6.965768478305508 Z" fill="#51a8db" transform="matrix(1,0,0,1,0,0)" fill-rule="evenodd"></path></g><g clip-path="url(#SvgjsClipPath120322dc2da128-73b1-4258-815f-e9bcd53aa0eb)"><path d=" M 3.738819234490195 -5.482904922018546 C 3.6898157142540726 -5.399629620874681 3.676168091185805 -5.300209534039533 3.70091902328492 -5.206809790269224 C 3.725669955384048 -5.113410046498939 3.7867616555040473 -5.033795880308668 3.8705740852583443 -4.9857168059122605 C 3.953767646208737 -4.9363693775992505 4.053303601183013 -4.922528700225341 4.1468044144346985 -4.947306415737027 C 4.240305227686409 -4.972084131248739 4.319924451240368 -5.0334009309326335 4.367762201364631 -5.117471656680396 C 4.416765721600754 -5.200746957824261 4.430413344669022 -5.3001670446594105 4.405662412569906 -5.39356678842972 C 4.380911480470777 -5.486966532200004 4.3198197803507785 -5.5665806983902755 4.236007350596469 -5.614659772786683 C 4.152813789646089 -5.664007201099692 4.053277834671813 -5.677847878473603 3.959777021420115 -5.653070162961916 C 3.866276208168405 -5.628292447450204 3.7866569846144573 -5.566975647766309 3.738819234490195 -5.482904922018546 Z" fill="#3361e1" transform="matrix(1,0,0,1,0,0)" fill-rule="evenodd"></path></g><g clip-path="url(#SvgjsClipPath120322dc2da128-73b1-4258-815f-e9bcd53aa0eb)"><path d=" M 3.1024184458741697 -6.702258776769185 C 2.995166291409948 -6.595433474635185 2.934876645851519 -6.450290839749331 2.934876645851519 -6.298914917577955 C 2.934876645851519 -6.147538995406603 2.995166291409948 -6.00239636052075 3.1024184458741697 -5.895571058386751 C 3.3252040336633297 -5.672870579434354 3.68632057646743 -5.672870579434354 3.90910616425659 -5.895571058386751 C 4.131806643208987 -6.118356646175911 4.131806643208987 -6.479473188980023 3.90910616425659 -6.702258776769185 C 3.802280862122604 -6.809510931233406 3.65713822723675 -6.869800576791822 3.5057623050653737 -6.869800576791822 C 3.3543863828940097 -6.869800576791822 3.209243748008156 -6.809510931233406 3.1024184458741697 -6.702258776769185 Z" fill="#51a8db" transform="matrix(1,0,0,1,0,0)" fill-rule="evenodd"></path></g></g><g><path d=" M 0.0945 0.9299999999999999 L 0.2115 0.9299999999999999 L 0.2115 0.28049999999999997 L 0.0945 0.28049999999999997 L 0.0945 0.022499999999999964 L 0.6795 0.022499999999999964 L 0.6795 0.28049999999999997 L 0.5865 0.28049999999999997 L 0.5865 0.5459999999999999 L 0.78 0.28049999999999997 L 0.78 0.022499999999999964 L 1.236 0.022499999999999964 L 1.236 0.28049999999999997 L 1.1355 0.28049999999999997 L 0.903 0.5624999999999999 L 0.903 0.573 Q 1.0215 0.573 1.089 0.6134999999999999 Q 1.1565 0.6539999999999999 1.1565 0.7545 L 1.1565 0.873 Q 1.1565 0.8955 1.1692500000000001 0.91275 Q 1.182 0.9299999999999999 1.2045000000000001 0.9299999999999999 L 1.2885 0.9299999999999999 L 1.2885 1.188 L 1.02 1.188 Q 0.774 1.188 0.774 0.963 L 0.774 0.8354999999999999 Q 0.774 0.7979999999999999 0.75 0.762 Q 0.726 0.726 0.6930000000000001 0.726 L 0.5865 0.726 L 0.5865 0.9299999999999999 L 0.7035 0.9299999999999999 L 0.7035 1.188 L 0.0945 1.188 L 0.0945 0.9299999999999999 M 1.6462294921874998 1.131 Q 1.5134794921874999 1.053 1.4444794921874997 0.91575 Q 1.3754794921874998 0.7785 1.3754794921874998 0.603 Q 1.3754794921874998 0.4214999999999999 1.4444794921874997 0.2849999999999999 Q 1.5134794921874999 0.14849999999999985 1.6454794921874998 0.07424999999999993 Q 1.7774794921874997 0 1.9619794921874998 0 Q 2.1464794921875 0 2.2784794921874996 0.07424999999999993 Q 2.4104794921875 0.14849999999999985 2.4794794921875 0.2849999999999999 Q 2.5484794921875 0.4214999999999999 2.5484794921875 0.603 Q 2.5484794921875 0.7785 2.4794794921875 0.91575 Q 2.4104794921875 1.053 2.2777294921874995 1.131 Q 2.1449794921875 1.2089999999999999 1.9619794921874998 1.2089999999999999 Q 1.7789794921874997 1.2089999999999999 1.6462294921874998 1.131 M 2.0834794921874997 0.8534999999999999 Q 2.1254794921875 0.7575 2.1254794921875 0.597 Q 2.1254794921875 0.44099999999999995 2.0849794921875 0.35024999999999995 Q 2.0444794921874996 0.25949999999999995 1.9619794921874998 0.25949999999999995 Q 1.8794794921874998 0.25949999999999995 1.8389794921874998 0.35024999999999995 Q 1.7984794921874998 0.44099999999999995 1.7984794921874998 0.597 Q 1.7984794921874998 0.7575 1.8404794921874998 0.8534999999999999 Q 1.8824794921874997 0.9494999999999999 1.9619794921874998 0.9494999999999999 Q 2.0414794921875 0.9494999999999999 2.0834794921874997 0.8534999999999999 M 2.69250732421875 1.188 L 2.69250732421875 0.9255 L 2.81100732421875 0.9255 L 2.81100732421875 0.2789999999999999 L 2.69550732421875 0.2789999999999999 L 2.69550732421875 0.020999999999999908 L 3.23400732421875 0.020999999999999908 L 3.59850732421875 0.714 L 3.59850732421875 0.28049999999999997 L 3.48150732421875 0.28049999999999997 L 3.48150732421875 0.022499999999999964 L 3.94800732421875 0.022499999999999964 L 3.94800732421875 0.28049999999999997 L 3.83250732421875 0.28049999999999997 L 3.83250732421875 1.188 L 3.3885073242187502 1.188 L 3.04200732421875 0.5445 L 3.04200732421875 0.9255 L 3.15900732421875 0.9255 L 3.15900732421875 1.188 L 2.69250732421875 1.188 M 4.359744873046875 1.143 Q 4.211994873046875 1.077 4.123494873046875 0.9375 Q 4.034994873046875 0.7979999999999999 4.034994873046875 0.5864999999999999 Q 4.034994873046875 0.4185 4.104744873046875 0.2849999999999999 Q 4.174494873046875 0.15149999999999997 4.307244873046875 0.07574999999999998 Q 4.439994873046875 0 4.619994873046875 0 Q 4.696494873046875 0 4.768494873046875 0.025499999999999856 Q 4.840494873046875 0.050999999999999934 4.882494873046875 0.10049999999999981 L 4.906494873046875 0.022499999999999964 L 5.159994873046875 0.022499999999999964 L 5.159994873046875 0.45299999999999996 L 4.933494873046875 0.45299999999999996 Q 4.910994873046875 0.3599999999999999 4.846494873046875 0.31275 Q 4.781994873046875 0.26549999999999996 4.711494873046875 0.26549999999999996 Q 4.594494873046875 0.26549999999999996 4.526244873046875 0.351 Q 4.457994873046875 0.4364999999999999 4.457994873046875 0.5864999999999999 Q 4.457994873046875 0.738 4.525494873046875 0.8242499999999999 Q 4.592994873046875 0.9104999999999999 4.715994873046875 0.9104999999999999 Q 4.747494873046875 0.9104999999999999 4.778994873046875 0.9044999999999999 Q 4.810494873046875 0.8985 4.829994873046875 0.8917499999999999 Q 4.849494873046875 0.885 4.855494873046875 0.8835 L 4.855494873046875 0.7799999999999999 L 4.714494873046875 0.7799999999999999 L 4.714494873046875 0.5624999999999999 L 5.183994873046875 0.5624999999999999 L 5.183994873046875 1.0859999999999999 Q 5.071494873046875 1.146 4.942494873046875 1.1775 Q 4.813494873046875 1.2089999999999999 4.685994873046875 1.2089999999999999 Q 4.507494873046875 1.2089999999999999 4.359744873046875 1.143 M 5.59125 1.14075 Q 5.457 1.0725 5.37675 0.9352499999999999 Q 5.2965 0.7979999999999999 5.2965 0.5984999999999999 Q 5.2965 0.4304999999999999 5.35725 0.29474999999999996 Q 5.418 0.15900000000000003 5.53575 0.0794999999999999 Q 5.6535 0 5.82 0 Q 5.9055 0 5.973 0.03974999999999995 Q 6.0405 0.0794999999999999 6.0705 0.14100000000000001 L 6.1005 0.022499999999999964 L 6.3285 0.022499999999999964 L 6.3285 0.5009999999999999 L 6.0945 0.5009999999999999 L 6.0945 0.477 Q 6.0945 0.3839999999999999 6.05175 0.32474999999999987 Q 6.009 0.26549999999999996 5.925 0.26549999999999996 Q 5.868 0.26549999999999996 5.82075 0.30899999999999994 Q 5.7735 0.3524999999999999 5.7465 0.42299999999999993 Q 5.7195 0.49349999999999994 5.7195 0.5684999999999999 Q 5.7195 0.7154999999999999 5.793 0.79875 Q 5.8665 0.8819999999999999 5.994 0.8819999999999999 Q 6.084 0.8819999999999999 6.16125 0.8519999999999999 Q 6.2385 0.822 6.288 0.7874999999999999 L 6.3045 0.8009999999999999 L 6.3045 1.113 Q 6.2115 1.167 6.108 1.188 Q 6.0045 1.2089999999999999 5.8875 1.2089999999999999 Q 5.7255 1.2089999999999999 5.59125 1.14075 M 6.43650732421875 1.188 L 6.43650732421875 0.9299999999999999 L 6.55350732421875 0.9299999999999999 L 6.55350732421875 0.28049999999999997 L 6.43650732421875 0.28049999999999997 L 6.43650732421875 0.022499999999999964 L 7.02150732421875 0.020999999999999908 L 7.02150732421875 0.28049999999999997 L 6.92850732421875 0.28049999999999997 L 6.92850732421875 0.4724999999999999 L 7.20900732421875 0.4724999999999999 L 7.20900732421875 0.28049999999999997 L 7.11600732421875 0.28049999999999997 L 7.11600732421875 0.020999999999999908 L 7.70100732421875 0.022499999999999964 L 7.70100732421875 0.28049999999999997 L 7.58400732421875 0.28049999999999997 L 7.58400732421875 0.9299999999999999 L 7.70100732421875 0.9299999999999999 L 7.70100732421875 1.188 L 7.11600732421875 1.188 L 7.11600732421875 0.9299999999999999 L 7.20900732421875 0.9299999999999999 L 7.20900732421875 0.7229999999999999 L 6.92850732421875 0.7229999999999999 L 6.92850732421875 0.9299999999999999 L 7.02150732421875 0.9299999999999999 L 7.02150732421875 1.188 L 6.43650732421875 1.188 M 7.778974365234375 1.188 L 7.778974365234375 0.9299999999999999 L 7.894474365234375 0.9299999999999999 L 8.095474365234375 0.28049999999999997 L 7.942474365234375 0.28049999999999997 L 7.942474365234375 0.022499999999999964 L 8.668474365234374 0.022499999999999964 L 8.927974365234375 0.9299999999999999 L 9.043474365234374 0.9299999999999999 L 9.043474365234374 1.188 L 8.387974365234374 1.188 L 8.387974365234374 0.9299999999999999 L 8.482474365234374 0.9299999999999999 L 8.450974365234375 0.8054999999999999 L 8.186974365234375 0.8054999999999999 L 8.153974365234376 0.9299999999999999 L 8.293474365234374 0.9299999999999999 L 8.293474365234374 1.188 L 7.778974365234375 1.188 M 8.224474365234375 0.6285 L 8.416474365234375 0.6285 L 8.330974365234376 0.27149999999999996 L 8.224474365234375 0.6285 M 9.310487548828124 1.188 L 9.310487548828124 0.9239999999999999 L 9.430487548828125 0.9239999999999999 L 9.430487548828125 0.28049999999999997 L 9.326987548828125 0.28049999999999997 L 9.295487548828126 0.48149999999999993 L 9.089987548828125 0.48149999999999993 L 9.089987548828125 0.022499999999999964 L 10.186487548828126 0.022499999999999964 L 10.186487548828126 0.48149999999999993 L 9.980987548828125 0.48149999999999993 L 9.949487548828126 0.28049999999999997 L 9.842987548828125 0.28049999999999997 L 9.842987548828125 0.9239999999999999 L 9.962987548828124 0.9239999999999999 L 9.962987548828124 1.188 L 9.310487548828124 1.188" fill="#000000" fill-rule="nonzero"></path></g><g><path d=" M 1.1054659756747163 1.5970004616477271 Q 1.0415455211292617 1.5970004616477271 1.020771373401989 1.6211037997159088 Q 0.9999972256747163 1.6452071377840907 0.9999972256747163 1.6753030184659088 Q 0.9999972256747163 1.7011375355113634 1.0179748535156254 1.7169844815340907 Q 1.0359524813565344 1.732831427556818 1.07164140181108 1.741620490056818 L 1.1480796120383527 1.7605302911931815 Q 1.20054765181108 1.7735807173295453 1.2335732199928982 1.8032770951704542 Q 1.2665987881747163 1.8329734730113634 1.2665987881747163 1.8960949218749996 Q 1.2665987881747163 1.965075745738636 1.212000066583807 1.9951716264204542 Q 1.1574013449928982 2.0252675071022725 1.0876215154474436 2.0252675071022725 Q 1.0593899813565344 2.0252675071022725 1.0298267711292617 2.017810120738636 Q 1.000263560901989 2.0103527343749996 0.9746953790838072 1.9927746093749996 Q 0.9736300381747163 2.0018300071022725 0.9691023393110799 2.0132824218749996 Q 0.9645746404474436 2.024734836647727 0.9555192427201709 2.024734836647727 Q 0.9459311745383526 2.024734836647727 0.9400717995383526 2.020739808238636 Q 0.9342124245383526 2.016744779829545 0.9331470836292618 2.0076893821022725 L 0.9179659756747163 1.8755871093749996 Q 0.9179659756747163 1.8649337002840907 0.9243580211292618 1.8597401633522725 Q 0.9307500665838072 1.8545466264204542 0.9435341574928982 1.8545466264204542 Q 0.9515242143110799 1.8545466264204542 0.9576499245383526 1.859207492897727 Q 0.9637756347656254 1.8638683593749996 0.9648409756747163 1.8718584161931815 L 0.9691023393110799 1.9088790127840907 Q 0.9717656915838072 1.9336481889204542 1.0058566006747163 1.955887180397727 Q 1.0399475097656254 1.9781261718749996 1.0809631347656254 1.9781261718749996 Q 1.1265064586292617 1.9781261718749996 1.1692532626065344 1.9618797230113634 Q 1.212000066583807 1.945633274147727 1.212000066583807 1.895828586647727 Q 1.212000066583807 1.8598733309659088 1.19029374556108 1.8457575639204542 Q 1.1685874245383527 1.8316417968749996 1.138757879083807 1.8231190696022725 L 1.0513999245383527 1.7983498934659088 Q 1.0037259188565344 1.7876964843749996 0.972431529651989 1.7603971235795453 Q 0.9411371404474436 1.7330977627840907 0.9411371404474436 1.6795643821022725 Q 0.9411371404474436 1.6212369673295453 0.9868136319247163 1.5880782315340907 Q 1.032490123401989 1.554919495738636 1.0966769131747163 1.554919495738636 Q 1.12437577681108 1.554919495738636 1.1535394841974436 1.5618442116477271 Q 1.182703191583807 1.568768927556818 1.2018793279474436 1.5847490411931815 Q 1.2018793279474436 1.5735629616477271 1.2089372114701709 1.564374396306818 Q 1.2159950949928982 1.5551858309659088 1.22691483931108 1.5551858309659088 Q 1.2349048961292617 1.5551858309659088 1.2410306063565344 1.559979865056818 Q 1.247156316583807 1.5647738991477271 1.2482216574928982 1.5727639559659088 L 1.250086004083807 1.6784990411931815 Q 1.250086004083807 1.6899514559659088 1.2431612881747163 1.6951449928977271 Q 1.2362365722656254 1.7003385298295453 1.2255831631747163 1.7003385298295453 Q 1.2162614302201709 1.7003385298295453 1.2102688876065344 1.6963435014204542 Q 1.2042763449928982 1.6923484730113634 1.203211004083807 1.6835594105113634 L 1.2021456631747163 1.6526645241477271 Q 1.1986833052201709 1.6225686434659088 1.1691200949928982 1.609784552556818 Q 1.1395568847656254 1.5970004616477271 1.1054659756747163 1.5970004616477271 L 1.1054659756747163 1.5970004616477271 M 1.2934986461292617 1.9957042968749996 Q 1.2934986461292617 1.9858498934659088 1.2980263449928982 1.9785256747159088 Q 1.3025540438565344 1.9712014559659088 1.3126747824928982 1.9712014559659088 L 1.349695379083807 1.9712014559659088 L 1.5260092995383525 1.5730302911931815 Q 1.5300043279474436 1.563708558238636 1.5379943847656252 1.5561180042613634 Q 1.545984441583807 1.5485274502840907 1.558768532492898 1.5485274502840907 Q 1.5720852938565344 1.5485274502840907 1.5791431773792617 1.556384339488636 Q 1.586201060901989 1.5642412286931815 1.5901960893110798 1.5740956321022725 L 1.750263560901989 1.9712014559659088 L 1.7976712313565344 1.9712014559659088 Q 1.807791969992898 1.9712014559659088 1.812186501242898 1.9785256747159088 Q 1.816581032492898 1.9858498934659088 1.816581032492898 1.9957042968749996 Q 1.816581032492898 2.0044933593749996 1.8115206631747163 2.011284907670454 Q 1.8064602938565344 2.018076455965909 1.7971385609019888 2.018076455965909 L 1.6253523393110798 2.018076455965909 Q 1.6160306063565344 2.018076455965909 1.6108370694247163 2.011284907670454 Q 1.605643532492898 2.0044933593749996 1.605643532492898 1.9957042968749996 Q 1.605643532492898 1.9858498934659088 1.6101712313565344 1.9785256747159088 Q 1.6146989302201709 1.9712014559659088 1.6248196688565344 1.9712014559659088 L 1.6831470836292617 1.9712014559659088 L 1.643729469992898 1.8670643821022725 L 1.4506364302201709 1.8670643821022725 L 1.4088217995383525 1.9712014559659088 L 1.4583601518110798 1.9712014559659088 Q 1.4684808904474436 1.9712014559659088 1.4730085893110798 1.9785256747159088 Q 1.4775362881747163 1.9858498934659088 1.4775362881747163 1.9957042968749996 Q 1.4775362881747163 2.0044933593749996 1.472342751242898 2.011284907670454 Q 1.4671492143110798 2.018076455965909 1.4578274813565344 2.018076455965909 L 1.3132074529474436 2.018076455965909 Q 1.3038857199928982 2.018076455965909 1.2986921830610798 2.011284907670454 Q 1.2934986461292617 2.0044933593749996 1.2934986461292617 1.9957042968749996 L 1.2934986461292617 1.9957042968749996 M 1.4671492143110798 1.8260487571022725 L 1.6285483620383525 1.8260487571022725 L 1.5505121404474436 1.6188399502840907 L 1.4671492143110798 1.8260487571022725 M 1.843747225674716 1.7027355468749996 Q 1.834958163174716 1.7027355468749996 1.8302972966974433 1.6968761718749996 Q 1.8256364302201706 1.6910167968749996 1.8256364302201706 1.6814287286931815 L 1.8296314586292615 1.5823520241477271 Q 1.8298977938565344 1.5719649502840907 1.8333601518110798 1.5667714133522725 Q 1.8368225097656252 1.5615778764204542 1.845877907492898 1.5615778764204542 L 2.229933305220171 1.5615778764204542 Q 2.238456032492898 1.5615778764204542 2.2421847256747163 1.5669045809659088 Q 2.245913418856534 1.5722312855113634 2.246179754083807 1.5823520241477271 L 2.250174782492898 1.6814287286931815 Q 2.250174782492898 1.6910167968749996 2.245513916015625 1.6968761718749996 Q 2.2408530495383525 1.7027355468749996 2.2320639870383525 1.7027355468749996 Q 2.222742254083807 1.7027355468749996 2.2170160466974433 1.6987405184659088 Q 2.2112898393110796 1.694745490056818 2.2102244984019888 1.6848910866477271 L 2.201968106356534 1.6084528764204542 L 2.0661371404474433 1.6084528764204542 L 2.0661371404474433 1.9712014559659088 L 2.1367159756747163 1.9712014559659088 Q 2.1468367143110796 1.9712014559659088 2.1512312455610796 1.9785256747159088 Q 2.1556257768110796 1.9858498934659088 2.1556257768110796 1.9957042968749996 Q 2.1556257768110796 2.0044933593749996 2.150565407492898 2.011284907670454 Q 2.1455050381747163 2.018076455965909 2.136183305220171 2.018076455965909 L 1.9343012029474433 2.018076455965909 Q 1.924979469992898 2.018076455965909 1.9197859330610798 2.011284907670454 Q 1.9145923961292615 2.0044933593749996 1.9145923961292615 1.9957042968749996 Q 1.9145923961292615 1.9858498934659088 1.919120094992898 1.9785256747159088 Q 1.9236477938565342 1.9712014559659088 1.933768532492898 1.9712014559659088 L 2.004081032492898 1.9712014559659088 L 2.004081032492898 1.6084528764204542 L 1.8735767711292615 1.6084528764204542 L 1.8655867143110798 1.6848910866477271 Q 1.8645213734019888 1.6950118252840907 1.8587951660156252 1.6988736860795453 Q 1.8530689586292615 1.7027355468749996 1.843747225674716 1.7027355468749996 L 1.843747225674716 1.7027355468749996 M 2.5106506347656254 2.024734836647727 Q 2.430750066583807 2.024734836647727 2.3798800381747163 1.980390021306818 Q 2.3290100097656254 1.9360452059659088 2.3290100097656254 1.8572099786931815 L 2.3290100097656254 1.6084528764204542 L 2.288793390447444 1.6084528764204542 Q 2.27867265181108 1.6084528764204542 2.274144952947444 1.6011286576704542 Q 2.269617254083807 1.5938044389204542 2.269617254083807 1.5839500355113634 Q 2.269617254083807 1.5751609730113634 2.2748107910156254 1.5683694247159088 Q 2.280004327947444 1.5615778764204542 2.289326060901989 1.5615778764204542 L 2.4448658336292617 1.5615778764204542 Q 2.454187566583807 1.5615778764204542 2.459247935901989 1.5683694247159088 Q 2.464308305220171 1.5751609730113634 2.464308305220171 1.5839500355113634 Q 2.464308305220171 1.5938044389204542 2.459913773970171 1.6011286576704542 Q 2.455519242720171 1.6084528764204542 2.445398504083807 1.6084528764204542 L 2.3913324529474433 1.6084528764204542 L 2.3913324529474433 1.8572099786931815 Q 2.3913324529474433 1.9139393821022725 2.4223605069247163 1.9455001065340907 Q 2.453388560901989 1.9770608309659088 2.5106506347656254 1.9770608309659088 Q 2.56285233931108 1.9770608309659088 2.5941467285156254 1.9435025923295453 Q 2.625441117720171 1.9099443536931815 2.625441117720171 1.857742649147727 L 2.625441117720171 1.6084528764204542 L 2.57457108931108 1.6084528764204542 Q 2.5644503506747163 1.6084528764204542 2.55992265181108 1.6011286576704542 Q 2.5553949529474433 1.5938044389204542 2.5553949529474433 1.5839500355113634 Q 2.5553949529474433 1.5751609730113634 2.5605884898792617 1.5683694247159088 Q 2.56578202681108 1.5615778764204542 2.5751037597656254 1.5615778764204542 L 2.7223871404474433 1.5615778764204542 Q 2.731708873401989 1.5615778764204542 2.736902410333807 1.5683694247159088 Q 2.7420959472656254 1.5751609730113634 2.7420959472656254 1.5839500355113634 Q 2.7420959472656254 1.5938044389204542 2.737568248401989 1.6011286576704542 Q 2.7330405495383525 1.6084528764204542 2.722919810901989 1.6084528764204542 L 2.6765774813565346 1.6084528764204542 L 2.6765774813565346 1.857742649147727 Q 2.6765774813565346 1.9317838423295453 2.6305014870383525 1.978259339488636 Q 2.584425492720171 2.024734836647727 2.5106506347656254 2.024734836647727 L 2.5106506347656254 2.024734836647727 M 3.3277671120383525 1.8659990411931815 Q 3.3277671120383525 1.929919495738636 3.274233731356534 1.9773271661931815 Q 3.2207003506747163 2.024734836647727 3.1314780495383525 2.024734836647727 Q 3.031069668856534 2.024734836647727 2.9640863591974433 1.9585505326704542 Q 2.8971030495383525 1.8923662286931815 2.8971030495383525 1.7813044389204542 Q 2.8971030495383525 1.6798307173295453 2.965418035333807 1.6173751065340907 Q 3.0337330211292617 1.554919495738636 3.136538418856534 1.554919495738636 Q 3.1799510609019888 1.554919495738636 3.211112282492898 1.5694347656249996 Q 3.242273504083807 1.5839500355113634 3.2662436745383525 1.6084528764204542 L 3.2662436745383525 1.5807540127840907 Q 3.2662436745383525 1.5706332741477271 3.2735678932883525 1.5661055752840907 Q 3.2808921120383525 1.5615778764204542 3.2907465154474433 1.5615778764204542 Q 3.2995355779474433 1.5615778764204542 3.306327126242898 1.5667714133522725 Q 3.3131186745383525 1.5719649502840907 3.3131186745383525 1.581286683238636 L 3.3131186745383525 1.680896058238636 Q 3.3131186745383525 1.6902177911931815 3.306327126242898 1.6954113281249996 Q 3.2995355779474433 1.700604865056818 3.2907465154474433 1.700604865056818 Q 3.281691117720171 1.700604865056818 3.277429754083807 1.6935469815340907 Q 3.2731683904474433 1.6864890980113634 3.268374356356534 1.6798307173295453 Q 3.248931884765625 1.647870490056818 3.2176374955610796 1.6265636718749996 Q 3.186343106356534 1.6052568536931815 3.136538418856534 1.6052568536931815 Q 3.057703191583807 1.6052568536931815 3.0124262029474433 1.655993714488636 Q 2.9671492143110796 1.7067305752840907 2.9671492143110796 1.7842341264204542 Q 2.9671492143110796 1.8715920809659088 3.0113608620383525 1.9220626065340907 Q 3.055572509765625 1.9725331321022723 3.136538418856534 1.9725331321022723 Q 3.1927351518110796 1.9725331321022723 3.227625066583807 1.9420377485795453 Q 3.262514981356534 1.911542365056818 3.272369384765625 1.8609386718749996 Q 3.274233731356534 1.8513506036931815 3.2823569557883525 1.8466897372159088 Q 3.290480180220171 1.842028870738636 3.2995355779474433 1.842028870738636 Q 3.3099226518110796 1.842028870738636 3.3188448819247163 1.8481545809659088 Q 3.3277671120383525 1.8542802911931815 3.3277671120383525 1.8659990411931815 L 3.3277671120383525 1.8659990411931815 M 3.3661193847656254 1.9957042968749996 Q 3.3661193847656254 1.9858498934659088 3.3706470836292617 1.9785256747159088 Q 3.375174782492898 1.9712014559659088 3.3852955211292617 1.9712014559659088 L 3.44468827681108 1.9712014559659088 L 3.44468827681108 1.6084528764204542 L 3.3908885609019888 1.6084528764204542 Q 3.3807678222656254 1.6084528764204542 3.3762401234019888 1.6011286576704542 Q 3.3717124245383525 1.5938044389204542 3.3717124245383525 1.5839500355113634 Q 3.3717124245383525 1.5751609730113634 3.376905961470171 1.5683694247159088 Q 3.3820994984019888 1.5615778764204542 3.391421231356534 1.5615778764204542 L 3.5605441006747163 1.5615778764204542 Q 3.5698658336292617 1.5615778764204542 3.5749262029474433 1.5683694247159088 Q 3.5799865722656254 1.5751609730113634 3.5799865722656254 1.5839500355113634 Q 3.5799865722656254 1.5938044389204542 3.5755920410156254 1.6011286576704542 Q 3.5711975097656254 1.6084528764204542 3.5610767711292617 1.6084528764204542 L 3.507010719992898 1.6084528764204542 L 3.507010719992898 1.7615956321022725 L 3.75523515181108 1.7615956321022725 L 3.75523515181108 1.6084528764204542 L 3.7011691006747163 1.6084528764204542 Q 3.6910483620383525 1.6084528764204542 3.6865206631747163 1.6011286576704542 Q 3.68199296431108 1.5938044389204542 3.68199296431108 1.5839500355113634 Q 3.68199296431108 1.5751609730113634 3.687186501242898 1.5683694247159088 Q 3.6923800381747163 1.5615778764204542 3.7017017711292617 1.5615778764204542 L 3.8652316006747163 1.5615778764204542 Q 3.8745533336292617 1.5615778764204542 3.87974687056108 1.5683694247159088 Q 3.884940407492898 1.5751609730113634 3.884940407492898 1.5839500355113634 Q 3.884940407492898 1.5938044389204542 3.8804127086292617 1.6011286576704542 Q 3.875885009765625 1.6084528764204542 3.8657642711292617 1.6084528764204542 L 3.817291259765625 1.6084528764204542 L 3.817291259765625 1.9712014559659088 L 3.8657642711292617 1.9712014559659088 Q 3.875885009765625 1.9712014559659088 3.8804127086292617 1.9785256747159088 Q 3.884940407492898 1.9858498934659088 3.884940407492898 1.9957042968749996 Q 3.884940407492898 2.0044933593749996 3.87974687056108 2.011284907670454 Q 3.8745533336292617 2.018076455965909 3.8652316006747163 2.018076455965909 L 3.7017017711292617 2.018076455965909 Q 3.6923800381747163 2.018076455965909 3.687186501242898 2.011284907670454 Q 3.68199296431108 2.0044933593749996 3.68199296431108 1.9957042968749996 Q 3.68199296431108 1.9858498934659088 3.6865206631747163 1.9785256747159088 Q 3.6910483620383525 1.9712014559659088 3.7011691006747163 1.9712014559659088 L 3.75523515181108 1.9712014559659088 L 3.75523515181108 1.8082042968749996 L 3.507010719992898 1.8082042968749996 L 3.507010719992898 1.9712014559659088 L 3.5610767711292617 1.9712014559659088 Q 3.5711975097656254 1.9712014559659088 3.5755920410156254 1.9785256747159088 Q 3.5799865722656254 1.9858498934659088 3.5799865722656254 1.9957042968749996 Q 3.5799865722656254 2.0044933593749996 3.5749262029474433 2.011284907670454 Q 3.5698658336292617 2.018076455965909 3.5605441006747163 2.018076455965909 L 3.385828191583807 2.018076455965909 Q 3.3765064586292617 2.018076455965909 3.3713129216974433 2.011284907670454 Q 3.3661193847656254 2.0044933593749996 3.3661193847656254 1.9957042968749996 L 3.3661193847656254 1.9957042968749996 M 3.8945284756747163 1.9957042968749996 Q 3.8945284756747163 1.9858498934659088 3.8990561745383525 1.9785256747159088 Q 3.903583873401989 1.9712014559659088 3.9137046120383525 1.9712014559659088 L 3.9507252086292617 1.9712014559659088 L 4.1270391290838075 1.5730302911931815 Q 4.131034157492898 1.563708558238636 4.13902421431108 1.5561180042613634 Q 4.147014271129262 1.5485274502840907 4.1597983620383525 1.5485274502840907 Q 4.173115123401989 1.5485274502840907 4.180173006924717 1.556384339488636 Q 4.187230890447443 1.5642412286931815 4.191225918856534 1.5740956321022725 L 4.351293390447443 1.9712014559659088 L 4.398701060901989 1.9712014559659088 Q 4.4088217995383525 1.9712014559659088 4.4132163307883525 1.9785256747159088 Q 4.4176108620383525 1.9858498934659088 4.4176108620383525 1.9957042968749996 Q 4.4176108620383525 2.0044933593749996 4.412550492720171 2.011284907670454 Q 4.407490123401989 2.018076455965909 4.398168390447443 2.018076455965909 L 4.226382168856534 2.018076455965909 Q 4.217060435901989 2.018076455965909 4.211866898970171 2.011284907670454 Q 4.2066733620383525 2.0044933593749996 4.2066733620383525 1.9957042968749996 Q 4.2066733620383525 1.9858498934659088 4.211201060901989 1.9785256747159088 Q 4.215728759765625 1.9712014559659088 4.225849498401989 1.9712014559659088 L 4.284176913174716 1.9712014559659088 L 4.2447592995383525 1.8670643821022725 L 4.051666259765625 1.8670643821022725 L 4.0098516290838075 1.9712014559659088 L 4.059389981356534 1.9712014559659088 Q 4.069510719992898 1.9712014559659088 4.074038418856534 1.9785256747159088 Q 4.078566117720171 1.9858498934659088 4.078566117720171 1.9957042968749996 Q 4.078566117720171 2.0044933593749996 4.0733725807883525 2.011284907670454 Q 4.068179043856534 2.018076455965909 4.058857310901989 2.018076455965909 L 3.914237282492898 2.018076455965909 Q 3.9049155495383525 2.018076455965909 3.8997220126065346 2.011284907670454 Q 3.8945284756747163 2.0044933593749996 3.8945284756747163 1.9957042968749996 L 3.8945284756747163 1.9957042968749996 M 4.068179043856534 1.8260487571022725 L 4.2295781915838075 1.8260487571022725 L 4.151541969992898 1.6188399502840907 L 4.068179043856534 1.8260487571022725 M 4.444777055220171 1.7027355468749996 Q 4.435987992720171 1.7027355468749996 4.431327126242898 1.6968761718749996 Q 4.426666259765625 1.6910167968749996 4.426666259765625 1.6814287286931815 L 4.430661288174716 1.5823520241477271 Q 4.430927623401989 1.5719649502840907 4.434389981356534 1.5667714133522725 Q 4.43785233931108 1.5615778764204542 4.4469077370383525 1.5615778764204542 L 4.830963134765625 1.5615778764204542 Q 4.8394858620383525 1.5615778764204542 4.843214555220171 1.5669045809659088 Q 4.846943248401989 1.5722312855113634 4.847209583629262 1.5823520241477271 L 4.8512046120383525 1.6814287286931815 Q 4.8512046120383525 1.6910167968749996 4.84654374556108 1.6968761718749996 Q 4.841882879083807 1.7027355468749996 4.833093816583807 1.7027355468749996 Q 4.823772083629262 1.7027355468749996 4.818045876242898 1.6987405184659088 Q 4.812319668856534 1.694745490056818 4.811254327947443 1.6848910866477271 L 4.802997935901989 1.6084528764204542 L 4.667166969992898 1.6084528764204542 L 4.667166969992898 1.9712014559659088 L 4.737745805220171 1.9712014559659088 Q 4.747866543856534 1.9712014559659088 4.752261075106534 1.9785256747159088 Q 4.756655606356534 1.9858498934659088 4.756655606356534 1.9957042968749996 Q 4.756655606356534 2.0044933593749996 4.7515952370383525 2.011284907670454 Q 4.746534867720171 2.018076455965909 4.737213134765625 2.018076455965909 L 4.535331032492898 2.018076455965909 Q 4.5260092995383525 2.018076455965909 4.520815762606534 2.011284907670454 Q 4.515622225674716 2.0044933593749996 4.515622225674716 1.9957042968749996 Q 4.515622225674716 1.9858498934659088 4.5201499245383525 1.9785256747159088 Q 4.524677623401989 1.9712014559659088 4.5347983620383525 1.9712014559659088 L 4.6051108620383525 1.9712014559659088 L 4.6051108620383525 1.6084528764204542 L 4.474606600674716 1.6084528764204542 L 4.466616543856534 1.6848910866477271 Q 4.465551202947443 1.6950118252840907 4.45982499556108 1.6988736860795453 Q 4.454098788174716 1.7027355468749996 4.444777055220171 1.7027355468749996 L 4.444777055220171 1.7027355468749996 M 5.198772083629262 1.5970004616477271 Q 5.134851629083807 1.5970004616477271 5.114077481356534 1.6211037997159088 Q 5.093303333629262 1.6452071377840907 5.093303333629262 1.6753030184659088 Q 5.093303333629262 1.7011375355113634 5.11128096147017 1.7169844815340907 Q 5.129258589311079 1.732831427556818 5.164947509765625 1.741620490056818 L 5.2413857199928975 1.7605302911931815 Q 5.293853759765625 1.7735807173295453 5.326879327947443 1.8032770951704542 Q 5.359904896129262 1.8329734730113634 5.359904896129262 1.8960949218749996 Q 5.359904896129262 1.965075745738636 5.3053061745383525 1.9951716264204542 Q 5.250707452947443 2.0252675071022725 5.180927623401988 2.0252675071022725 Q 5.152696089311079 2.0252675071022725 5.123132879083807 2.017810120738636 Q 5.093569668856534 2.0103527343749996 5.0680014870383525 1.9927746093749996 Q 5.066936146129262 2.0018300071022725 5.062408447265625 2.0132824218749996 Q 5.057880748401988 2.024734836647727 5.048825350674716 2.024734836647727 Q 5.0392372824928975 2.024734836647727 5.0333779074928975 2.020739808238636 Q 5.0275185324928975 2.016744779829545 5.026453191583807 2.0076893821022725 L 5.011272083629262 1.8755871093749996 Q 5.011272083629262 1.8649337002840907 5.017664129083807 1.8597401633522725 Q 5.0240561745383525 1.8545466264204542 5.036840265447443 1.8545466264204542 Q 5.044830322265625 1.8545466264204542 5.0509560324928975 1.859207492897727 Q 5.05708174272017 1.8638683593749996 5.058147083629262 1.8718584161931815 L 5.062408447265625 1.9088790127840907 Q 5.0650717995383525 1.9336481889204542 5.099162708629262 1.955887180397727 Q 5.13325361772017 1.9781261718749996 5.17426924272017 1.9781261718749996 Q 5.219812566583807 1.9781261718749996 5.262559370561079 1.9618797230113634 Q 5.3053061745383525 1.945633274147727 5.3053061745383525 1.895828586647727 Q 5.3053061745383525 1.8598733309659088 5.283599853515625 1.8457575639204542 Q 5.2618935324928975 1.8316417968749996 5.2320639870383525 1.8231190696022725 L 5.1447060324928975 1.7983498934659088 Q 5.097032026811079 1.7876964843749996 5.065737637606534 1.7603971235795453 Q 5.034443248401988 1.7330977627840907 5.034443248401988 1.6795643821022725 Q 5.034443248401988 1.6212369673295453 5.080119739879262 1.5880782315340907 Q 5.125796231356534 1.554919495738636 5.189983021129262 1.554919495738636 Q 5.217681884765625 1.554919495738636 5.246845592151988 1.5618442116477271 Q 5.2760092995383525 1.568768927556818 5.295185435901988 1.5847490411931815 Q 5.295185435901988 1.5735629616477271 5.302243319424716 1.564374396306818 Q 5.309301202947443 1.5551858309659088 5.320220947265625 1.5551858309659088 Q 5.328211004083807 1.5551858309659088 5.334336714311079 1.559979865056818 Q 5.3404624245383525 1.5647738991477271 5.341527765447443 1.5727639559659088 L 5.3433921120383525 1.6784990411931815 Q 5.3433921120383525 1.6899514559659088 5.336467396129262 1.6951449928977271 Q 5.32954268022017 1.7003385298295453 5.318889271129262 1.7003385298295453 Q 5.309567538174716 1.7003385298295453 5.303574995561079 1.6963435014204542 Q 5.297582452947443 1.6923484730113634 5.2965171120383525 1.6835594105113634 L 5.295451771129262 1.6526645241477271 Q 5.291989413174716 1.6225686434659088 5.262426202947443 1.609784552556818 Q 5.23286299272017 1.5970004616477271 5.198772083629262 1.5970004616477271 L 5.198772083629262 1.5970004616477271 M 5.696019952947443 1.8452248934659088 Q 5.696019952947443 1.8545466264204542 5.691225918856534 1.8605391690340907 Q 5.686431884765625 1.866531711647727 5.677376487038352 1.866531711647727 Q 5.6691200949928975 1.866531711647727 5.663660222833807 1.8612050071022725 Q 5.658200350674716 1.855878302556818 5.656069668856534 1.8484209161931815 L 5.642486572265625 1.7988825639204542 L 5.553530606356534 1.7988825639204542 L 5.553530606356534 1.9712014559659088 L 5.788704612038352 1.9712014559659088 L 5.819599498401988 1.8833108309659088 Q 5.823328191583807 1.8750544389204542 5.829986572265625 1.869061896306818 Q 5.836644952947443 1.8630693536931815 5.847032026811079 1.8630693536931815 Q 5.855821089311079 1.8630693536931815 5.861147793856534 1.868396058238636 Q 5.866474498401988 1.8737227627840907 5.866474498401988 1.8827781605113634 Q 5.866474498401988 1.8854415127840907 5.866074995561079 1.888104865056818 Q 5.86567549272017 1.8907682173295453 5.864876487038352 1.8931652343749996 L 5.84809736772017 1.997302308238636 Q 5.845434015447443 2.006890376420454 5.840639981356534 2.0124834161931817 Q 5.835845947265625 2.018076455965909 5.826257879083807 2.018076455965909 L 5.416101629083807 2.018076455965909 Q 5.406779896129261 2.018076455965909 5.401586359197443 2.011284907670454 Q 5.396392822265625 2.0044933593749996 5.396392822265625 1.9957042968749996 Q 5.396392822265625 1.9858498934659088 5.400920521129261 1.9785256747159088 Q 5.4054482199928975 1.9712014559659088 5.415568958629261 1.9712014559659088 L 5.491474498401988 1.9712014559659088 L 5.491474498401988 1.6084528764204542 L 5.442735151811079 1.6084528764204542 Q 5.432614413174716 1.6084528764204542 5.428219881924716 1.6011286576704542 Q 5.423825350674716 1.5938044389204542 5.423825350674716 1.5839500355113634 Q 5.423825350674716 1.5751609730113634 5.4288857199928975 1.5683694247159088 Q 5.433946089311079 1.5615778764204542 5.443267822265625 1.5615778764204542 L 5.815338134765625 1.5615778764204542 Q 5.824926202947443 1.5615778764204542 5.829453901811079 1.567304083806818 Q 5.833981600674716 1.5730302911931815 5.837177623401988 1.5823520241477271 L 5.86274580522017 1.6667802911931815 Q 5.863544810901988 1.6697099786931815 5.8639443137428975 1.6723733309659088 Q 5.864343816583807 1.675036683238636 5.864343816583807 1.677167365056818 Q 5.864343816583807 1.685956427556818 5.858883944424716 1.6914162997159088 Q 5.853424072265625 1.6968761718749996 5.8449013449928975 1.6968761718749996 Q 5.835046941583807 1.6968761718749996 5.827989058061079 1.6908836292613634 Q 5.820931174538352 1.6848910866477271 5.817468816583807 1.6766346946022725 L 5.788704612038352 1.6084528764204542 L 5.553530606356534 1.6084528764204542 L 5.553530606356534 1.7605302911931815 L 5.642486572265625 1.7605302911931815 L 5.656069668856534 1.7109919389204542 Q 5.658200350674716 1.703534552556818 5.663660222833807 1.6982078480113634 Q 5.6691200949928975 1.6928811434659088 5.677376487038352 1.6928811434659088 Q 5.686431884765625 1.6928811434659088 5.691225918856534 1.6988736860795453 Q 5.696019952947443 1.7048662286931815 5.696019952947443 1.714187961647727 L 5.692024924538352 1.778641086647727 L 5.696019952947443 1.8452248934659088 M 6.324571089311079 1.9957042968749996 Q 6.324571089311079 1.9858498934659088 6.329098788174716 1.9785256747159088 Q 6.333626487038352 1.9712014559659088 6.343747225674716 1.9712014559659088 L 6.392220237038352 1.9712014559659088 L 6.392220237038352 1.6891524502840907 L 6.231353759765625 1.9909102627840907 Q 6.2286904074928975 1.9978349786931815 6.222032026811079 2.0030285156249996 Q 6.215373646129261 2.008222052556818 6.206318248401988 2.008222052556818 Q 6.198061856356534 2.008222052556818 6.191536643288352 2.003827521306818 Q 6.18501143022017 1.999432990056818 6.182348077947443 1.993573615056818 L 6.031602339311079 1.6854237571022725 L 6.031602339311079 1.9712014559659088 L 6.085668390447443 1.9712014559659088 Q 6.095789129083807 1.9712014559659088 6.100316827947443 1.9785256747159088 Q 6.104844526811079 1.9858498934659088 6.104844526811079 1.9957042968749996 Q 6.104844526811079 2.0044933593749996 6.099650989879261 2.011284907670454 Q 6.094457452947443 2.018076455965909 6.0851357199928975 2.018076455965909 L 5.917078191583807 2.018076455965909 Q 5.907756458629261 2.018076455965909 5.902562921697443 2.011284907670454 Q 5.897369384765625 2.0044933593749996 5.897369384765625 1.9957042968749996 Q 5.897369384765625 1.9858498934659088 5.901897083629261 1.9785256747159088 Q 5.9064247824928975 1.9712014559659088 5.916545521129261 1.9712014559659088 L 5.975938276811079 1.9712014559659088 L 5.975938276811079 1.6084528764204542 L 5.922138560901988 1.6084528764204542 Q 5.912017822265625 1.6084528764204542 5.907490123401988 1.6011286576704542 Q 5.9029624245383525 1.5938044389204542 5.9029624245383525 1.5839500355113634 Q 5.9029624245383525 1.5751609730113634 5.90815596147017 1.5683694247159088 Q 5.913349498401988 1.5615778764204542 5.922671231356534 1.5615778764204542 L 6.01215986772017 1.5615778764204542 Q 6.019350918856534 1.5615778764204542 6.023479114879261 1.565839240056818 Q 6.027607310901988 1.5701006036931815 6.030004327947443 1.5751609730113634 L 6.206318248401988 1.9307185014204542 L 6.394350918856534 1.5730302911931815 Q 6.396747935901988 1.5685025923295453 6.401009299538352 1.5650402343749996 Q 6.405270663174716 1.5615778764204542 6.411929043856534 1.5615778764204542 L 6.496889981356534 1.5615778764204542 Q 6.506211714311079 1.5615778764204542 6.5114052512428975 1.5683694247159088 Q 6.516598788174716 1.5751609730113634 6.516598788174716 1.5839500355113634 Q 6.516598788174716 1.5938044389204542 6.512071089311079 1.6011286576704542 Q 6.507543390447443 1.6084528764204542 6.497422651811079 1.6084528764204542 L 6.448949640447443 1.6084528764204542 L 6.448949640447443 1.9712014559659088 L 6.503015691583807 1.9712014559659088 Q 6.51313643022017 1.9712014559659088 6.51753096147017 1.9785256747159088 Q 6.52192549272017 1.9858498934659088 6.52192549272017 1.9957042968749996 Q 6.52192549272017 2.0044933593749996 6.516865123401988 2.011284907670454 Q 6.511804754083807 2.018076455965909 6.502483021129261 2.018076455965909 L 6.344279896129261 2.018076455965909 Q 6.334958163174716 2.018076455965909 6.3297646262428975 2.011284907670454 Q 6.324571089311079 2.0044933593749996 6.324571089311079 1.9957042968749996 L 6.324571089311079 1.9957042968749996 M 6.7829340154474425 2.024734836647727 Q 6.703033447265625 2.024734836647727 6.652163418856534 1.980390021306818 Q 6.6012933904474425 1.9360452059659088 6.6012933904474425 1.8572099786931815 L 6.6012933904474425 1.6084528764204542 L 6.561076771129261 1.6084528764204542 Q 6.5509560324928975 1.6084528764204542 6.546428333629261 1.6011286576704542 Q 6.541900634765625 1.5938044389204542 6.541900634765625 1.5839500355113634 Q 6.541900634765625 1.5751609730113634 6.5470941716974425 1.5683694247159088 Q 6.552287708629261 1.5615778764204542 6.561609441583807 1.5615778764204542 L 6.717149214311079 1.5615778764204542 Q 6.726470947265625 1.5615778764204542 6.731531316583807 1.5683694247159088 Q 6.736591685901988 1.5751609730113634 6.736591685901988 1.5839500355113634 Q 6.736591685901988 1.5938044389204542 6.732197154651988 1.6011286576704542 Q 6.727802623401988 1.6084528764204542 6.717681884765625 1.6084528764204542 L 6.663615833629261 1.6084528764204542 L 6.663615833629261 1.8572099786931815 Q 6.663615833629261 1.9139393821022725 6.694643887606534 1.9455001065340907 Q 6.725671941583807 1.9770608309659088 6.7829340154474425 1.9770608309659088 Q 6.8351357199928975 1.9770608309659088 6.8664301091974425 1.9435025923295453 Q 6.897724498401988 1.9099443536931815 6.897724498401988 1.857742649147727 L 6.897724498401988 1.6084528764204542 L 6.8468544699928975 1.6084528764204542 Q 6.836733731356533 1.6084528764204542 6.8322060324928975 1.6011286576704542 Q 6.827678333629261 1.5938044389204542 6.827678333629261 1.5839500355113634 Q 6.827678333629261 1.5751609730113634 6.832871870561079 1.5683694247159088 Q 6.8380654074928975 1.5615778764204542 6.8473871404474425 1.5615778764204542 L 6.994670521129261 1.5615778764204542 Q 7.003992254083807 1.5615778764204542 7.009185791015625 1.5683694247159088 Q 7.0143793279474425 1.5751609730113634 7.0143793279474425 1.5839500355113634 Q 7.0143793279474425 1.5938044389204542 7.009851629083807 1.6011286576704542 Q 7.00532393022017 1.6084528764204542 6.995203191583807 1.6084528764204542 L 6.948860862038352 1.6084528764204542 L 6.948860862038352 1.857742649147727 Q 6.948860862038352 1.9317838423295453 6.90278486772017 1.978259339488636 Q 6.856708873401988 2.024734836647727 6.7829340154474425 2.024734836647727 L 6.7829340154474425 2.024734836647727 M 7.024766401811079 1.9957042968749996 Q 7.024766401811079 1.9858498934659088 7.029294100674716 1.9785256747159088 Q 7.033821799538352 1.9712014559659088 7.043942538174716 1.9712014559659088 L 7.080963134765625 1.9712014559659088 L 7.25727705522017 1.5730302911931815 Q 7.261272083629261 1.563708558238636 7.2692621404474425 1.5561180042613634 Q 7.277252197265625 1.5485274502840907 7.290036288174716 1.5485274502840907 Q 7.303353049538352 1.5485274502840907 7.310410933061079 1.556384339488636 Q 7.317468816583807 1.5642412286931815 7.3214638449928975 1.5740956321022725 L 7.481531316583807 1.9712014559659088 L 7.528938987038352 1.9712014559659088 Q 7.539059725674716 1.9712014559659088 7.543454256924716 1.9785256747159088 Q 7.547848788174716 1.9858498934659088 7.547848788174716 1.9957042968749996 Q 7.547848788174716 2.0044933593749996 7.542788418856533 2.011284907670454 Q 7.537728049538352 2.018076455965909 7.528406316583807 2.018076455965909 L 7.3566200949928975 2.018076455965909 Q 7.347298362038352 2.018076455965909 7.342104825106533 2.011284907670454 Q 7.336911288174716 2.0044933593749996 7.336911288174716 1.9957042968749996 Q 7.336911288174716 1.9858498934659088 7.341438987038352 1.9785256747159088 Q 7.345966685901988 1.9712014559659088 7.356087424538352 1.9712014559659088 L 7.414414839311079 1.9712014559659088 L 7.374997225674716 1.8670643821022725 L 7.181904185901988 1.8670643821022725 L 7.14008955522017 1.9712014559659088 L 7.1896279074928975 1.9712014559659088 Q 7.199748646129261 1.9712014559659088 7.2042763449928975 1.9785256747159088 Q 7.208804043856533 1.9858498934659088 7.208804043856533 1.9957042968749996 Q 7.208804043856533 2.0044933593749996 7.203610506924716 2.011284907670454 Q 7.1984169699928975 2.018076455965909 7.189095237038352 2.018076455965909 L 7.044475208629261 2.018076455965909 Q 7.035153475674716 2.018076455965909 7.0299599387428975 2.011284907670454 Q 7.024766401811079 2.0044933593749996 7.024766401811079 1.9957042968749996 L 7.024766401811079 1.9957042968749996 M 7.1984169699928975 1.8260487571022725 L 7.35981611772017 1.8260487571022725 L 7.281779896129261 1.6188399502840907 L 7.1984169699928975 1.8260487571022725 M 8.138313987038352 1.882245490056818 Q 8.138313987038352 1.9546886718749996 8.076923717151988 1.9863825639204542 Q 8.015533447265623 2.018076455965909 7.942823930220169 2.018076455965909 L 7.701257879083806 2.018076455965909 Q 7.69193614612926 2.018076455965909 7.6867426091974425 2.011284907670454 Q 7.681549072265624 2.0044933593749996 7.681549072265624 1.9957042968749996 Q 7.681549072265624 1.9858498934659088 7.68607677112926 1.9785256747159088 Q 7.690604469992897 1.9712014559659088 7.70072520862926 1.9712014559659088 L 7.77103770862926 1.9712014559659088 L 7.77103770862926 1.6084528764204542 L 7.714308305220169 1.6084528764204542 Q 7.704986572265624 1.6084528764204542 7.6999262029474425 1.6016613281249996 Q 7.69486583362926 1.5948697798295453 7.69486583362926 1.5860807173295453 Q 7.69486583362926 1.5762263139204542 7.69926036487926 1.5689020951704542 Q 7.70365489612926 1.5615778764204542 7.713775634765624 1.5615778764204542 L 7.9313715154474425 1.5615778764204542 Q 7.996889981356533 1.5615778764204542 8.045096657492897 1.5860807173295453 Q 8.09330333362926 1.610583558238636 8.09330333362926 1.6774337002840907 Q 8.09330333362926 1.7107256036931815 8.07426036487926 1.732165589488636 Q 8.05521739612926 1.7536055752840907 8.029116543856533 1.7605302911931815 Q 8.073328191583805 1.7666560014204542 8.105821089311078 1.7952870383522725 Q 8.138313987038352 1.8239180752840907 8.138313987038352 1.882245490056818 L 8.138313987038352 1.882245490056818 M 8.07173018022017 1.876386115056818 Q 8.07173018022017 1.8161943536931815 8.035375421697442 1.8018122514204542 Q 7.999020663174715 1.787430149147727 7.953211004083806 1.787430149147727 L 7.833360151811078 1.787430149147727 L 7.833360151811078 1.9712014559659088 L 7.943622935901987 1.9712014559659088 Q 7.99955333362926 1.9712014559659088 8.035641756924715 1.9505604758522725 Q 8.07173018022017 1.929919495738636 8.07173018022017 1.876386115056818 L 8.07173018022017 1.876386115056818 M 8.039769952947442 1.6806297230113634 Q 8.039769952947442 1.639880433238636 8.011138916015623 1.6241666548295453 Q 7.982507879083806 1.6084528764204542 7.936431884765624 1.6084528764204542 L 7.833360151811078 1.6084528764204542 L 7.833360151811078 1.7530729048295453 L 7.953211004083806 1.7530729048295453 Q 7.985437566583806 1.7530729048295453 8.012603759765623 1.7360274502840907 Q 8.039769952947442 1.718981995738636 8.039769952947442 1.6806297230113634 L 8.039769952947442 1.6806297230113634 M 8.176666259765623 1.9957042968749996 Q 8.176666259765623 1.9858498934659088 8.181060791015623 1.9785256747159088 Q 8.185455322265623 1.9712014559659088 8.195576060901987 1.9712014559659088 L 8.260561856356533 1.9712014559659088 L 8.260561856356533 1.6084528764204542 L 8.195576060901987 1.6084528764204542 Q 8.185455322265623 1.6084528764204542 8.181060791015623 1.6011286576704542 Q 8.176666259765623 1.5938044389204542 8.176666259765623 1.5839500355113634 Q 8.176666259765623 1.5751609730113634 8.181726629083805 1.5683694247159088 Q 8.186786998401987 1.5615778764204542 8.196108731356533 1.5615778764204542 L 8.387071089311078 1.5615778764204542 Q 8.396392822265623 1.5615778764204542 8.401586359197442 1.5683694247159088 Q 8.40677989612926 1.5751609730113634 8.40677989612926 1.5839500355113634 Q 8.40677989612926 1.5938044389204542 8.402252197265623 1.6011286576704542 Q 8.397724498401987 1.6084528764204542 8.387603759765623 1.6084528764204542 L 8.32288429953835 1.6084528764204542 L 8.32288429953835 1.9712014559659088 L 8.387603759765623 1.9712014559659088 Q 8.397724498401987 1.9712014559659088 8.402252197265623 1.9785256747159088 Q 8.40677989612926 1.9858498934659088 8.40677989612926 1.9957042968749996 Q 8.40677989612926 2.0044933593749996 8.401586359197442 2.011284907670454 Q 8.396392822265623 2.018076455965909 8.387071089311078 2.018076455965909 L 8.196108731356533 2.018076455965909 Q 8.186786998401987 2.018076455965909 8.181726629083805 2.011284907670454 Q 8.176666259765623 2.0044933593749996 8.176666259765623 1.9957042968749996 L 8.176666259765623 1.9957042968749996 M 8.639823219992895 1.5970004616477271 Q 8.575902765447442 1.5970004616477271 8.555128617720168 1.6211037997159088 Q 8.534354469992895 1.6452071377840907 8.534354469992895 1.6753030184659088 Q 8.534354469992895 1.7011375355113634 8.552332097833805 1.7169844815340907 Q 8.570309725674713 1.732831427556818 8.605998646129258 1.741620490056818 L 8.682436856356532 1.7605302911931815 Q 8.734904896129258 1.7735807173295453 8.767930464311076 1.8032770951704542 Q 8.800956032492895 1.8329734730113634 8.800956032492895 1.8960949218749996 Q 8.800956032492895 1.965075745738636 8.746357310901987 1.9951716264204542 Q 8.691758589311076 2.0252675071022725 8.621978759765623 2.0252675071022725 Q 8.593747225674713 2.0252675071022725 8.564184015447442 2.017810120738636 Q 8.534620805220168 2.0103527343749996 8.509052623401987 1.9927746093749996 Q 8.507987282492895 2.0018300071022725 8.503459583629258 2.0132824218749996 Q 8.498931884765623 2.024734836647727 8.48987648703835 2.024734836647727 Q 8.480288418856532 2.024734836647727 8.474429043856532 2.020739808238636 Q 8.468569668856532 2.016744779829545 8.467504327947442 2.0076893821022725 L 8.452323219992895 1.8755871093749996 Q 8.452323219992895 1.8649337002840907 8.458715265447442 1.8597401633522725 Q 8.465107310901987 1.8545466264204542 8.477891401811076 1.8545466264204542 Q 8.485881458629258 1.8545466264204542 8.492007168856532 1.859207492897727 Q 8.498132879083805 1.8638683593749996 8.499198219992895 1.8718584161931815 L 8.503459583629258 1.9088790127840907 Q 8.506122935901987 1.9336481889204542 8.540213844992895 1.955887180397727 Q 8.574304754083805 1.9781261718749996 8.615320379083805 1.9781261718749996 Q 8.660863702947442 1.9781261718749996 8.703610506924713 1.9618797230113634 Q 8.746357310901987 1.945633274147727 8.746357310901987 1.895828586647727 Q 8.746357310901987 1.8598733309659088 8.724650989879258 1.8457575639204542 Q 8.702944668856532 1.8316417968749996 8.673115123401987 1.8231190696022725 L 8.585757168856532 1.7983498934659088 Q 8.538083163174713 1.7876964843749996 8.506788773970168 1.7603971235795453 Q 8.475494384765623 1.7330977627840907 8.475494384765623 1.6795643821022725 Q 8.475494384765623 1.6212369673295453 8.521170876242895 1.5880782315340907 Q 8.566847367720168 1.554919495738636 8.631034157492895 1.554919495738636 Q 8.658733021129258 1.554919495738636 8.687896728515623 1.5618442116477271 Q 8.717060435901987 1.568768927556818 8.736236572265623 1.5847490411931815 Q 8.736236572265623 1.5735629616477271 8.74329445578835 1.564374396306818 Q 8.750352339311076 1.5551858309659088 8.761272083629258 1.5551858309659088 Q 8.769262140447442 1.5551858309659088 8.775387850674713 1.559979865056818 Q 8.781513560901987 1.5647738991477271 8.782578901811076 1.5727639559659088 L 8.784443248401987 1.6784990411931815 Q 8.784443248401987 1.6899514559659088 8.777518532492895 1.6951449928977271 Q 8.770593816583805 1.7003385298295453 8.759940407492895 1.7003385298295453 Q 8.75061867453835 1.7003385298295453 8.744626131924713 1.6963435014204542 Q 8.738633589311076 1.6923484730113634 8.737568248401987 1.6835594105113634 L 8.736502907492895 1.6526645241477271 Q 8.73304054953835 1.6225686434659088 8.703477339311076 1.609784552556818 Q 8.673914129083805 1.5970004616477271 8.639823219992895 1.5970004616477271 L 8.639823219992895 1.5970004616477271 M 8.827855890447442 1.9957042968749996 Q 8.827855890447442 1.9858498934659088 8.832383589311078 1.9785256747159088 Q 8.836911288174715 1.9712014559659088 8.847032026811078 1.9712014559659088 L 8.884052623401987 1.9712014559659088 L 9.060366543856533 1.5730302911931815 Q 9.064361572265623 1.563708558238636 9.072351629083805 1.5561180042613634 Q 9.080341685901987 1.5485274502840907 9.093125776811078 1.5485274502840907 Q 9.106442538174715 1.5485274502840907 9.113500421697442 1.556384339488636 Q 9.120558305220168 1.5642412286931815 9.12455333362926 1.5740956321022725 L 9.284620805220168 1.9712014559659088 L 9.332028475674715 1.9712014559659088 Q 9.342149214311078 1.9712014559659088 9.346543745561078 1.9785256747159088 Q 9.350938276811078 1.9858498934659088 9.350938276811078 1.9957042968749996 Q 9.350938276811078 2.0044933593749996 9.345877907492897 2.011284907670454 Q 9.340817538174715 2.018076455965909 9.331495805220168 2.018076455965909 L 9.15970958362926 2.018076455965909 Q 9.150387850674715 2.018076455965909 9.145194313742897 2.011284907670454 Q 9.140000776811078 2.0044933593749996 9.140000776811078 1.9957042968749996 Q 9.140000776811078 1.9858498934659088 9.144528475674715 1.9785256747159088 Q 9.14905617453835 1.9712014559659088 9.159176913174715 1.9712014559659088 L 9.217504327947442 1.9712014559659088 L 9.178086714311078 1.8670643821022725 L 8.98499367453835 1.8670643821022725 L 8.943179043856533 1.9712014559659088 L 8.99271739612926 1.9712014559659088 Q 9.002838134765623 1.9712014559659088 9.00736583362926 1.9785256747159088 Q 9.011893532492897 1.9858498934659088 9.011893532492897 1.9957042968749996 Q 9.011893532492897 2.0044933593749996 9.006699995561078 2.011284907670454 Q 9.00150645862926 2.018076455965909 8.992184725674715 2.018076455965909 L 8.847564697265623 2.018076455965909 Q 8.838242964311078 2.018076455965909 8.83304942737926 2.011284907670454 Q 8.827855890447442 2.0044933593749996 8.827855890447442 1.9957042968749996 L 8.827855890447442 1.9957042968749996 M 9.00150645862926 1.8260487571022725 L 9.162905606356533 1.8260487571022725 L 9.084869384765623 1.6188399502840907 L 9.00150645862926 1.8260487571022725" fill="#3361e1" fill-rule="nonzero"></path></g></g><defs><clipPath id="SvgjsClipPath120327"><path d=" M 0.6860842015976649 -9.11983599133592 h 8.86983599133592 v 8.86983599133592 h -8.86983599133592 Z"></path></clipPath><clipPath id="SvgjsClipPath120322dc2da128-73b1-4258-815f-e9bcd53aa0eb"><path d=" M 0.6860842015976649 -9.11983599133592 L 9.555920192933584 -9.11983599133592 L 9.555920192933584 -0.25 L 0.6860842015976649 -0.25 Z"></path></clipPath></defs></svg>